<mxfile host="Electron" modified="2024-03-05T18:19:28.328Z" agent="Mozilla/5.0 (Windows NT 10.0; Win64; x64) AppleWebKit/537.36 (KHTML, like Gecko) draw.io/23.1.5 Chrome/120.0.6099.109 Electron/28.1.0 Safari/537.36" etag="lknWwp12lsrvA6RWttfV" version="23.1.5" type="device">
  <diagram name="Page-1" id="S6b-bocvTRUC7G-E0d26">
    <mxGraphModel dx="1050" dy="717" grid="1" gridSize="10" guides="1" tooltips="1" connect="1" arrows="1" fold="1" page="1" pageScale="1" pageWidth="850" pageHeight="1100" math="0" shadow="0">
      <root>
        <mxCell id="0" />
        <mxCell id="1" parent="0" />
        <mxCell id="4EXU4Y3LMDl34YSY65tt-16" style="edgeStyle=orthogonalEdgeStyle;rounded=0;orthogonalLoop=1;jettySize=auto;html=1;exitX=0.5;exitY=1;exitDx=0;exitDy=0;entryX=0.5;entryY=0;entryDx=0;entryDy=0;" parent="1" source="4EXU4Y3LMDl34YSY65tt-1" target="4EXU4Y3LMDl34YSY65tt-2" edge="1">
          <mxGeometry relative="1" as="geometry" />
        </mxCell>
        <mxCell id="4EXU4Y3LMDl34YSY65tt-1" value="getMileage()" style="rounded=1;whiteSpace=wrap;html=1;arcSize=50;" parent="1" vertex="1">
          <mxGeometry x="20" y="70" width="120" height="30" as="geometry" />
        </mxCell>
        <mxCell id="4EXU4Y3LMDl34YSY65tt-2" value="return mileage" style="rounded=1;whiteSpace=wrap;html=1;arcSize=50;" parent="1" vertex="1">
          <mxGeometry x="20" y="130" width="120" height="30" as="geometry" />
        </mxCell>
        <mxCell id="4EXU4Y3LMDl34YSY65tt-14" style="edgeStyle=orthogonalEdgeStyle;rounded=0;orthogonalLoop=1;jettySize=auto;html=1;exitX=0.5;exitY=1;exitDx=0;exitDy=0;entryX=0.5;entryY=0;entryDx=0;entryDy=0;" parent="1" source="4EXU4Y3LMDl34YSY65tt-3" target="4EXU4Y3LMDl34YSY65tt-4" edge="1">
          <mxGeometry relative="1" as="geometry" />
        </mxCell>
        <mxCell id="4EXU4Y3LMDl34YSY65tt-3" value="setMileage(num mileage)" style="rounded=1;whiteSpace=wrap;html=1;arcSize=50;" parent="1" vertex="1">
          <mxGeometry x="180" y="70" width="170" height="30" as="geometry" />
        </mxCell>
        <mxCell id="4EXU4Y3LMDl34YSY65tt-15" style="edgeStyle=orthogonalEdgeStyle;rounded=0;orthogonalLoop=1;jettySize=auto;html=1;exitX=0.5;exitY=1;exitDx=0;exitDy=0;entryX=0.5;entryY=0;entryDx=0;entryDy=0;" parent="1" source="4EXU4Y3LMDl34YSY65tt-4" target="4EXU4Y3LMDl34YSY65tt-5" edge="1">
          <mxGeometry relative="1" as="geometry" />
        </mxCell>
        <mxCell id="4EXU4Y3LMDl34YSY65tt-4" value="this.mileage = mileage" style="rounded=1;whiteSpace=wrap;html=1;arcSize=50;" parent="1" vertex="1">
          <mxGeometry x="197.5" y="130" width="135" height="30" as="geometry" />
        </mxCell>
        <mxCell id="4EXU4Y3LMDl34YSY65tt-5" value="return" style="rounded=1;whiteSpace=wrap;html=1;arcSize=50;" parent="1" vertex="1">
          <mxGeometry x="205" y="200" width="120" height="30" as="geometry" />
        </mxCell>
        <mxCell id="4EXU4Y3LMDl34YSY65tt-11" style="edgeStyle=orthogonalEdgeStyle;rounded=0;orthogonalLoop=1;jettySize=auto;html=1;exitX=0.5;exitY=1;exitDx=0;exitDy=0;entryX=0.5;entryY=0;entryDx=0;entryDy=0;" parent="1" source="4EXU4Y3LMDl34YSY65tt-6" target="4EXU4Y3LMDl34YSY65tt-8" edge="1">
          <mxGeometry relative="1" as="geometry" />
        </mxCell>
        <mxCell id="4EXU4Y3LMDl34YSY65tt-6" value="toString()" style="rounded=1;whiteSpace=wrap;html=1;arcSize=50;" parent="1" vertex="1">
          <mxGeometry x="70" y="260" width="120" height="30" as="geometry" />
        </mxCell>
        <mxCell id="4EXU4Y3LMDl34YSY65tt-7" value="return report" style="rounded=1;whiteSpace=wrap;html=1;arcSize=50;" parent="1" vertex="1">
          <mxGeometry x="70" y="460" width="120" height="30" as="geometry" />
        </mxCell>
        <mxCell id="4EXU4Y3LMDl34YSY65tt-12" style="edgeStyle=orthogonalEdgeStyle;rounded=0;orthogonalLoop=1;jettySize=auto;html=1;exitX=0.5;exitY=1;exitDx=0;exitDy=0;entryX=0.25;entryY=0;entryDx=0;entryDy=0;" parent="1" source="4EXU4Y3LMDl34YSY65tt-8" target="4EXU4Y3LMDl34YSY65tt-9" edge="1">
          <mxGeometry relative="1" as="geometry" />
        </mxCell>
        <mxCell id="4EXU4Y3LMDl34YSY65tt-8" value="Declarations&lt;br&gt;&lt;span style=&quot;white-space: pre;&quot;&gt;&#x9;&lt;/span&gt;String reports" style="rounded=0;whiteSpace=wrap;html=1;align=left;verticalAlign=top;" parent="1" vertex="1">
          <mxGeometry x="70" y="315" width="120" height="40" as="geometry" />
        </mxCell>
        <mxCell id="4EXU4Y3LMDl34YSY65tt-13" style="edgeStyle=orthogonalEdgeStyle;rounded=0;orthogonalLoop=1;jettySize=auto;html=1;exitX=0.25;exitY=1;exitDx=0;exitDy=0;entryX=0.5;entryY=0;entryDx=0;entryDy=0;" parent="1" source="4EXU4Y3LMDl34YSY65tt-9" target="4EXU4Y3LMDl34YSY65tt-7" edge="1">
          <mxGeometry relative="1" as="geometry" />
        </mxCell>
        <mxCell id="4EXU4Y3LMDl34YSY65tt-9" value="reports = vehicleIdentificationNumber + &quot; &quot; + mileage + &quot;(km), $&quot; + invoicePrice" style="rounded=0;whiteSpace=wrap;html=1;align=left;verticalAlign=top;" parent="1" vertex="1">
          <mxGeometry x="20" y="390" width="435" height="30" as="geometry" />
        </mxCell>
        <mxCell id="o6KxtWdAIvFPOnqDObRh-1" value="Flowchart by Christopher Frosst" style="shape=note;whiteSpace=wrap;html=1;backgroundOutline=1;darkOpacity=0.05;align=left;" vertex="1" parent="1">
          <mxGeometry x="30" y="550" width="215" height="40" as="geometry" />
        </mxCell>
        <mxCell id="o6KxtWdAIvFPOnqDObRh-3" style="edgeStyle=orthogonalEdgeStyle;rounded=0;orthogonalLoop=1;jettySize=auto;html=1;exitX=0;exitY=0;exitDx=0;exitDy=0;entryX=0.75;entryY=1;entryDx=0;entryDy=0;" edge="1" parent="1" source="o6KxtWdAIvFPOnqDObRh-2" target="4EXU4Y3LMDl34YSY65tt-9">
          <mxGeometry relative="1" as="geometry" />
        </mxCell>
        <mxCell id="o6KxtWdAIvFPOnqDObRh-2" value="&lt;p class=&quot;MsoNormal&quot;&gt;//Mileage&amp;nbsp;&lt;span style=&quot;background-color: initial;&quot;&gt;should be formatted to 1 decimal,&amp;nbsp;&lt;/span&gt;&lt;/p&gt;&lt;p style=&quot;line-height: 100%;&quot; class=&quot;MsoNormal&quot;&gt;&lt;span style=&quot;background-color: initial;&quot;&gt;//Invoice price should be formatted to 2&amp;nbsp;&lt;/span&gt;&lt;span style=&quot;background-color: initial;&quot;&gt;decimals&amp;nbsp;&lt;/span&gt;&lt;/p&gt;&lt;p style=&quot;line-height: 100%;&quot; class=&quot;MsoNormal&quot;&gt;&lt;span style=&quot;background-color: initial;&quot;&gt;//Invoice price should start with ‘$’ char, ‘(km)’ string should be&amp;nbsp;&lt;/span&gt;&lt;span style=&quot;background-color: initial;&quot;&gt;placed after Mileage&lt;/span&gt;&lt;/p&gt;" style="rounded=0;whiteSpace=wrap;html=1;align=left;verticalAlign=top;" vertex="1" parent="1">
          <mxGeometry x="370" y="440" width="420" height="110" as="geometry" />
        </mxCell>
      </root>
    </mxGraphModel>
  </diagram>
</mxfile>
